<?xml version="1.0" encoding="UTF-8" standalone="no"?><!DOCTYPE svg PUBLIC "-//W3C//DTD SVG 1.1//EN" "http://www.w3.org/Graphics/SVG/1.1/DTD/svg11.dtd"><svg width="100%" height="100%" viewBox="0 0 128 128" version="1.1" xmlns="http://www.w3.org/2000/svg" xmlns:xlink="http://www.w3.org/1999/xlink" xml:space="preserve" xmlns:serif="http://www.serif.com/" style="fill-rule:evenodd;clip-rule:evenodd;stroke-linejoin:round;stroke-miterlimit:2;"><path d="M125.99,36.182c-0,-0 -0,-0 -0,-0c-0.006,-3.42 -2.683,-6.829 -5.965,-7.616c-0,-0 -73.44,-17.613 -73.44,-17.613c-1.834,-0.44 -3.485,-0.023 -4.686,0.942c-1.191,0.957 -1.966,2.479 -1.963,4.375c-0,-0 0.067,40.287 0.067,40.287c0.006,3.409 2.667,6.808 5.935,7.609c1.562,0.44 73.116,20.605 73.412,20.689l0.059,0.015c1.833,0.439 3.485,0.022 4.685,-0.942c1.191,-0.957 1.966,-2.48 1.963,-4.375c-0,0.001 -0.067,-43.371 -0.067,-43.371Zm-4.268,38.817c-4.997,-5.21 -17.413,-18.129 -20.995,-21.65c-4.519,-4.442 -5.08,-2.719 -8.678,-0.713c-2.955,1.648 -4.769,-0.64 -5.247,-1.378c-0.081,-0.129 -0.175,-0.249 -0.281,-0.357c-1.142,-1.172 -8.768,-8.99 -11.603,-11.761c-3.068,-2.999 -6.043,-0.838 -6.043,-0.838l-24.527,15.683l-0.061,-36.328c-0.002,-0.79 0.273,-1.447 0.78,-1.843c0.512,-0.401 1.227,-0.513 2.009,-0.325c0,-0 71.081,17.047 71.081,17.047c1.93,0.463 3.503,2.434 3.506,4.403l0.059,38.06Zm-18.055,-41.414c4.208,-0 7.624,3.416 7.624,7.624c0,4.208 -3.416,7.624 -7.624,7.624c-4.208,0 -7.624,-3.416 -7.624,-7.624c-0,-4.208 3.416,-7.624 7.624,-7.624Z" style="fill:#5b9404;"/><path d="M35.286,65.847l-30.856,22.515c-0.048,0.035 -0.093,0.072 -0.137,0.112c-1.565,1.42 -2.077,3.065 -1.834,4.494c0.247,1.448 1.285,2.818 3.247,3.587l0.058,0.022c0.3,0.106 72.787,25.563 74.355,26.114c3.126,1.209 7.696,0.35 10.215,-1.934c-0,-0 30.654,-27.803 30.654,-27.803c1.566,-1.42 2.078,-3.065 1.834,-4.495c-0.247,-1.448 -1.286,-2.817 -3.248,-3.587c-0.051,-0.02 -0.103,-0.037 -0.156,-0.052c0,-0 -71.424,-20.126 -74.04,-20.863c-3.092,-1.17 -7.572,-0.335 -10.092,1.89Zm-26.15,27.067c-0.599,-0.238 -1.036,-0.536 -1.118,-0.975c-0.079,-0.418 0.195,-0.83 0.634,-1.242c0.001,-0.001 29.136,-20.958 29.136,-20.958c0.051,-0.036 0.099,-0.076 0.146,-0.118c1.572,-1.426 4.462,-1.949 6.449,-1.17c0.052,0.02 0.106,0.038 0.161,0.054c-0,-0 68.909,19.172 71.711,19.951c0.574,0.236 0.986,0.529 1.066,0.954c0.082,0.439 -0.223,0.87 -0.699,1.302c-0,0 -29.07,26.365 -29.07,26.365c-1.572,1.426 -4.462,1.949 -6.449,1.17c-0.018,-0.007 -0.036,-0.014 -0.055,-0.02l-71.912,-25.313Zm52.334,7.157c0.621,-0.56 0.565,-1.202 -0.125,-1.434l-12.288,-4.072c-0.69,-0.232 -1.754,0.034 -2.374,0.593l-5.049,3.996c-0.62,0.559 -0.564,1.201 0.126,1.433l12.684,4.266c0.69,0.232 1.754,-0.034 2.375,-0.593l4.651,-4.189Zm43.338,-9.84c1.011,-0.938 0.911,-1.96 -0.222,-2.281l-58.635,-16.887c-1.133,-0.321 -2.874,0.18 -3.885,1.118l-13.915,10.2c-1.011,0.938 -0.911,1.96 0.222,2.281l58.629,19.358c1.133,0.321 2.874,-0.18 3.885,-1.118l13.921,-12.671Z" style="fill:#838180;"/><path d="M14.691,25.449c-0.746,0.442 -1.616,0.696 -2.546,0.696c-2.763,-0 -5.007,-2.244 -5.007,-5.007c0,-2.764 2.244,-5.007 5.007,-5.007c2.764,-0 5.007,2.243 5.007,5.007c0,0.694 -0.141,1.355 -0.397,1.956l8.968,7.45c0.017,0.013 0.032,0.027 0.048,0.041c0,0 0.971,0.901 2.129,1.015c1.61,0.158 9.276,0.112 9.276,0.112l0.017,3.13c-0,0 -7.933,0.036 -9.599,-0.127c-1.978,-0.194 -3.68,-1.6 -3.895,-1.785l-0.023,-0.02c-0,0 0.007,0.007 0.023,0.02l0.024,0.022l-9.032,-7.503Zm-2.576,-6.341c1.057,0 1.915,0.858 1.915,1.915c-0,1.057 -0.858,1.915 -1.915,1.915c-1.057,0 -1.915,-0.858 -1.915,-1.915c-0,-1.057 0.858,-1.915 1.915,-1.915Z" style="fill:#838180;"/><path d="M37.254,49.21l0,3.161c-2.173,0.342 -6.924,1.133 -7.984,1.66c-1.249,0.622 -2.028,1.552 -2.028,1.552c-0.005,0.007 -0.011,0.013 -0.016,0.02l-7.936,9.303c0.481,0.769 0.759,1.677 0.759,2.65c0,2.764 -2.244,5.007 -5.007,5.007c-2.764,0 -5.007,-2.243 -5.007,-5.007c-0,-2.763 2.243,-5.007 5.007,-5.007c0.651,0 1.274,0.125 1.844,0.351l7.947,-9.314c0.082,-0.099 1.226,-1.452 3.042,-2.356c1.278,-0.636 7.407,-1.691 9.379,-2.02Zm-22.243,16.317c1.057,-0 1.915,0.858 1.915,1.915c0,1.057 -0.858,1.915 -1.915,1.915c-1.057,0 -1.915,-0.858 -1.915,-1.915c0,-1.057 0.858,-1.915 1.915,-1.915Z" style="fill:#838180;"/><path d="M13.202,44.101c-0.003,-0.129 -0.014,-2.126 1.468,-3.353c0.629,-0.52 1.527,-0.938 2.85,-0.946c2.866,-0.017 19.787,-0.125 19.787,-0.125l0.02,3.13c-0,0 -16.923,0.108 -19.789,0.125c-0.397,0.002 -0.683,0.071 -0.872,0.227c-0.373,0.309 -0.336,0.827 -0.336,0.827c0,0.018 0.001,0.035 0.001,0.053c-0,-0 0.02,4.009 -0.026,5.362c-0.124,3.676 -3.179,4.412 -3.179,4.412c-0.014,0.003 -0.028,0.007 -0.043,0.011l-1.354,0.329c-0.173,2.607 -2.345,4.671 -4.996,4.671c-2.763,0 -5.007,-2.243 -5.007,-5.007c-0,-2.763 2.244,-5.007 5.007,-5.007c1.771,0 3.329,0.922 4.219,2.311l1.318,-0.321c0.093,-0.048 0.872,-0.481 0.907,-1.504c0.044,-1.323 0.024,-5.241 0.024,-5.241l0.001,0.052l-0,-0.006Zm-6.499,7.687c1.056,-0 1.915,0.858 1.915,1.915c-0,1.057 -0.859,1.915 -1.915,1.915c-1.057,-0 -1.916,-0.858 -1.916,-1.915c0,-1.057 0.859,-1.915 1.916,-1.915Z" style="fill:#838180;"/><path d="M20.561,12.291c-2.021,-0.645 -3.486,-2.538 -3.486,-4.771c0,-2.764 2.244,-5.008 5.007,-5.008c2.764,0 5.007,2.244 5.007,5.008c0,2.2 -1.423,4.071 -3.398,4.742l0.005,3.28c0,0.059 -0.003,0.117 -0.01,0.175c0,0 -0.156,0.981 0.425,1.572c0.221,0.226 0.573,0.338 1.075,0.346c3.416,0.055 11.914,-0.059 11.914,-0.059l0.042,3.13c-0,-0 -8.564,0.114 -12.006,0.059c-1.556,-0.025 -2.572,-0.584 -3.258,-1.282c-1.306,-1.328 -1.333,-3.365 -1.312,-3.938l-0.005,-3.254Z" style="fill:#838180;"/></svg>